<?xml version="1.0" standalone="no"?>
<!DOCTYPE svg PUBLIC "-//W3C//DTD SVG 20010904//EN"
 "http://www.w3.org/TR/2001/REC-SVG-20010904/DTD/svg10.dtd">
<svg version="1.0" xmlns="http://www.w3.org/2000/svg"
 width="1000.000000pt" height="1000.000000pt" viewBox="0 0 1000.000000 1000.000000"
 preserveAspectRatio="xMidYMid meet">
<metadata>
Created by potrace 1.11, written by Peter Selinger 2001-2013
</metadata>
<g transform="translate(0.000000,1000.000000) scale(0.100000,-0.100000)"
fill="#000000" stroke="none">
<path d="M5377 9933 c-1 0 -40 -4 -87 -7 -47 -3 -105 -8 -130 -10 -25 -3 -67
-7 -94 -10 -52 -6 -108 -14 -146 -21 -13 -3 -42 -7 -65 -10 -22 -3 -53 -9 -70
-12 -16 -4 -38 -8 -47 -9 -10 -1 -19 -2 -20 -4 -4 -3 -40 -10 -78 -16 -19 -2
-53 -10 -75 -15 -22 -6 -47 -12 -55 -14 -8 -2 -35 -8 -60 -15 -25 -7 -52 -13
-60 -15 -8 -2 -42 -11 -75 -20 -33 -10 -62 -18 -65 -18 -3 0 -43 -13 -90 -29
-47 -16 -92 -31 -100 -33 -26 -6 -202 -72 -295 -110 -225 -92 -497 -229 -675
-338 -36 -22 -74 -45 -85 -52 -31 -17 -169 -108 -175 -115 -3 -3 -18 -14 -35
-24 -35 -22 -206 -149 -251 -186 -17 -14 -50 -41 -75 -62 -135 -111 -207 -177
-361 -330 -81 -81 -148 -149 -148 -151 0 -3 -19 -25 -43 -50 -23 -24 -51 -55
-61 -68 -105 -127 -193 -239 -246 -314 -36 -49 -67 -92 -70 -95 -15 -13 -157
-240 -225 -360 -64 -111 -201 -383 -235 -465 -18 -44 -43 -102 -56 -129 -8
-16 -14 -33 -14 -39 0 -5 -7 -23 -15 -40 -24 -52 -129 -370 -140 -427 -2 -8
-4 -16 -5 -17 -2 -2 -4 -7 -5 -13 -1 -5 -3 -11 -5 -12 -1 -2 -3 -10 -5 -18 -2
-8 -6 -26 -9 -40 -7 -35 -12 -56 -30 -125 -8 -33 -17 -76 -20 -95 -7 -42 -13
-76 -20 -98 -3 -9 -7 -35 -11 -57 -3 -22 -7 -51 -9 -65 -2 -14 -7 -47 -11 -73
-4 -27 -8 -58 -11 -70 -2 -12 -6 -49 -9 -82 -3 -33 -8 -76 -10 -95 -24 -179
-24 -690 0 -909 2 -20 7 -67 11 -106 6 -69 11 -100 14 -100 1 0 4 -18 5 -40 2
-22 6 -49 8 -60 5 -19 17 -90 23 -130 5 -34 14 -77 30 -140 8 -33 16 -71 19
-85 5 -30 8 -43 34 -138 10 -40 19 -73 19 -75 1 -3 2 -7 51 -162 38 -118 69
-207 91 -260 5 -11 34 -81 65 -155 60 -143 137 -300 214 -439 25 -46 59 -107
75 -135 15 -28 34 -58 42 -67 8 -8 14 -21 14 -27 0 -7 5 -12 10 -12 6 0 10 -4
10 -9 0 -10 77 -131 112 -175 13 -16 25 -34 27 -40 2 -6 13 -23 25 -37 12 -14
30 -38 41 -53 36 -51 205 -259 268 -331 142 -162 441 -449 592 -568 11 -8 45
-35 75 -59 30 -24 93 -72 140 -106 47 -33 90 -65 95 -69 6 -5 28 -20 50 -33
22 -13 42 -28 43 -32 2 -4 10 -8 18 -8 8 0 14 -4 14 -8 0 -5 15 -16 33 -25 32
-17 51 -28 98 -59 79 -52 507 -279 541 -287 7 -1 36 -13 133 -55 89 -39 120
-51 122 -48 2 1 17 -5 34 -14 17 -8 38 -17 47 -20 19 -4 128 -41 152 -51 18
-8 12 -6 85 -27 33 -10 67 -20 75 -23 8 -3 20 -7 25 -9 6 -1 71 -18 145 -38
74 -19 150 -38 169 -41 19 -3 37 -8 40 -10 4 -2 25 -6 47 -9 52 -8 82 -14 102
-20 9 -3 37 -8 62 -11 25 -3 56 -7 70 -10 33 -6 94 -15 150 -20 25 -3 59 -7
76 -10 36 -6 161 -17 224 -19 25 -1 50 -5 57 -9 6 -4 15 -3 18 3 4 6 12 7 18
3 7 -5 35 -8 62 -8 l50 0 0 4933 1 4933 -94 -3 c-52 -2 -94 -4 -95 -5z"/>
<path d="M6296 8131 c-1 -3 -2 -1372 -2 -3041 l1 -3035 30 1 c17 1 75 5 130 9
55 5 116 9 135 11 19 1 35 3 35 4 0 2 29 7 85 14 62 8 234 44 292 61 27 8 48
11 48 7 0 -3 5 -1 12 6 7 7 21 12 33 12 12 0 26 5 33 12 7 7 12 9 12 6 0 -8
184 56 279 96 91 39 276 130 343 168 84 48 190 114 213 132 11 8 68 51 127 95
59 44 120 92 135 105 16 14 39 34 53 46 48 40 198 191 251 252 30 34 61 69 69
78 33 33 189 249 236 325 67 108 63 101 117 206 27 51 51 98 56 104 4 5 22 46
40 90 18 44 40 94 47 112 8 17 14 36 14 42 0 6 4 19 10 29 17 30 75 221 95
312 2 8 11 49 20 90 9 41 18 86 20 100 5 39 16 113 21 140 25 157 26 622 0
756 -2 12 -7 43 -11 70 -5 43 -44 237 -61 304 -4 14 -7 31 -7 38 0 6 -3 12 -7
12 -3 0 -6 9 -7 19 -2 27 -68 218 -110 320 -59 142 -147 315 -219 429 -19 29
-34 55 -34 58 0 2 -5 10 -11 17 -5 7 -36 49 -67 94 -32 45 -69 94 -82 110 -14
15 -33 39 -42 52 -75 107 -323 349 -488 476 -35 28 -69 54 -75 58 -38 29 -136
97 -140 97 -3 0 -27 15 -53 34 -27 18 -58 37 -70 40 -12 4 -22 12 -22 17 0 5
-4 9 -9 9 -6 0 -51 22 -101 49 -50 28 -94 51 -98 52 -4 1 -41 17 -82 36 -41
19 -79 36 -85 38 -10 2 -22 7 -97 38 -21 9 -38 14 -38 11 0 -2 -11 3 -25 12
-14 9 -25 14 -25 11 0 -3 -26 3 -57 15 -32 11 -67 21 -78 23 -11 1 -27 5 -35
8 -18 7 -135 37 -170 43 -14 3 -34 7 -45 9 -21 4 -61 12 -105 20 -14 3 -47 7
-75 11 -27 3 -61 7 -75 10 -24 4 -134 13 -233 18 -26 2 -49 0 -51 -3z"/>
</g>
</svg>
