<svg xmlns="http://www.w3.org/2000/svg" xmlns:xlink="http://www.w3.org/1999/xlink" viewBox="0 0 1294.65 420.96"><defs><style>.cls-1{fill:url(#linear-gradient);}.cls-2{fill:url(#linear-gradient-2);}.cls-3{fill:#101820;}</style><linearGradient id="linear-gradient" y1="210.48" x2="204.95" y2="210.48" gradientUnits="userSpaceOnUse"><stop offset="0.16" stop-color="#2648ff"/><stop offset="0.37" stop-color="#2444fe"/><stop offset="0.56" stop-color="#1f39fb"/><stop offset="0.75" stop-color="#1727f7"/><stop offset="0.93" stop-color="#0b0df0"/><stop offset="1" stop-color="#0500ed"/></linearGradient><linearGradient id="linear-gradient-2" x1="235.43" y1="206.74" x2="361.7" y2="206.74" xlink:href="#linear-gradient"/></defs><title>Asset 3</title><g id="Layer_2" data-name="Layer 2"><g id="Layer_1-2" data-name="Layer 1"><path class="cls-1" d="M205,0C91.26,3,0,96.07,0,210.48S91.26,418,205,421V0"/><path class="cls-2" d="M235.43,336.43a129.73,129.73,0,0,0,0-259.37Z"/><path class="cls-3" d="M462.53,163.34c1,5.24,7.05,8.25,14.27,8.25,7.65,0,12.35-3.13,12.35-7.41,0-4.09-3.37-5.84-13.13-7.59L467.29,155c-17.28-3.07-26.74-11.8-26.74-25.29,0-17.47,15.06-28.49,35.71-28.49,23.25,0,36.25,10.78,36.37,27.95H489.15c-.18-5.3-5.6-8.38-12.59-8.38s-10.72,3.14-10.72,7.05,3.74,5.78,12.41,7.35l8.73,1.56c18.67,3.37,27.46,11,27.46,25.11,0,17.89-14,29.27-37.94,29.27-22.52,0-37.39-10.06-37.45-27.82Z"/><path class="cls-3" d="M539.82,189.65v-66.6H516.94V102.76h71.3v20.29H565.36v66.6Z"/><path class="cls-3" d="M618.8,155.87c0,9.15,4.52,14.15,12.77,14.15s12.77-5,12.77-14.15V102.76h25.53V158.7c0,19.81-15.36,32.46-38.3,32.46s-38.3-12.65-38.3-32.46V102.76H618.8Z"/><path class="cls-3" d="M715.36,102.76c26.38,0,41.86,15,41.86,42.81s-15.54,44.08-41.86,44.08H678.21V102.76Zm-11.62,66.6h8c12.77,0,19.45-7.77,19.45-23.79,0-14.63-7.22-22.52-19.45-22.52h-8Z"/><path class="cls-3" d="M761.34,146.18c0-28.67,16.56-44.93,43.12-44.93,22.94,0,40.29,14.94,40.35,36.5H820.36c-.6-9.88-7.05-16.44-15.9-16.44-10.48,0-17.1,9.27-17.1,24.81,0,15.71,6.56,25,17.16,25,8.79,0,15.17-6.45,16-16.5h24.45c-.12,21.67-17,36.55-40.47,36.55C777.84,191.16,761.34,174.84,761.34,146.18Z"/><path class="cls-3" d="M936.31,146.24c0,27.76-16.92,44.92-43.78,44.92S848.75,174,848.75,146.24s16.92-45,43.78-45S936.31,118.48,936.31,146.24Zm-61.54,0c0,15,7,24.57,17.76,24.57s17.77-9.58,17.77-24.57-7.11-24.63-17.77-24.63S874.77,131.18,874.77,146.24Z"/><path class="cls-3" d="M968.08,155.87c0,9.15,4.51,14.15,12.76,14.15s12.77-5,12.77-14.15V102.76h25.53V158.7c0,19.81-15.35,32.46-38.3,32.46s-38.29-12.65-38.29-32.46V102.76h25.53Z"/><path class="cls-3" d="M1027.49,189.65V102.76h19.81l33.54,45h.48v-45h24.09v86.89h-19.57l-33.79-45.76h-.48v45.76Z"/><path class="cls-3" d="M1111.64,146.18c0-28.67,16.56-44.93,43.12-44.93,22.94,0,40.28,14.94,40.34,36.5h-24.44c-.61-9.88-7.05-16.44-15.9-16.44-10.48,0-17.1,9.27-17.1,24.81,0,15.71,6.56,25,17.16,25,8.79,0,15.17-6.45,16-16.5h24.44c-.12,21.67-17,36.55-40.46,36.55C1128.14,191.16,1111.64,174.84,1111.64,146.18Z"/><path class="cls-3" d="M1201.16,189.65V102.76h25.53v86.89Z"/><path class="cls-3" d="M1294.65,189.65H1235V102.76h25.53v66.6h34.08Z"/><path class="cls-3" d="M441.46,297.32v-86.9H467v36.86h.48l26.86-36.86h26.79L492.52,249l29.93,48.3H492.76l-19-31.92-6.8,9.16v22.76Z"/><path class="cls-3" d="M568.15,210.42c19.33,0,32.34,12.35,32.34,31.68,0,19.15-13.79,31.49-34.08,31.49H554v23.73H528.47v-86.9ZM554,254.74h7.17c8.49,0,13.55-4.27,13.55-12.58s-5.06-12.53-13.37-12.53H554Z"/><path class="cls-3" d="M609.52,297.32v-86.9h25.53v86.9Z"/></g></g></svg>