<svg width="339" height="125" viewBox="0 0 339 125" fill="none" xmlns="http://www.w3.org/2000/svg">
<g clip-path="url(#clip0)">
<path d="M61.5719 0.722004C27.6642 1.59151 0.42334 28.8786 0.42334 62.4056C0.42334 95.9327 27.6642 123.194 61.5719 124.064L61.5719 0.722004Z" fill="url(#paint0_linear)"/>
<path d="M70.6869 99.3084C91.5993 98.7714 108.371 81.9695 108.371 61.306C108.371 40.6425 91.5993 23.8406 70.6869 23.3035L70.6869 99.3084Z" fill="url(#paint1_linear)"/>
<path d="M131.591 43.3175C131.591 34.8552 136.54 30.0553 144.444 30.0553C151.283 30.0553 156.453 34.4631 156.471 40.8286L149.179 40.8286C149.004 37.9115 147.082 35.9668 144.449 35.9668C141.324 35.9668 139.352 38.7059 139.352 43.2917C139.352 47.9342 141.308 50.6681 144.467 50.6681C147.088 50.6681 148.991 48.7647 149.223 45.7961L156.516 45.7961C156.471 52.2156 151.427 56.6002 144.449 56.6002C136.511 56.6002 131.591 51.7772 131.591 43.3175Z" fill="#101820"/>
<path d="M165.025 56.1515L165.025 36.4826L158.214 36.4826L158.214 30.5015L179.466 30.5015L179.466 36.4826L172.645 36.4826L172.645 56.1437L165.025 56.1515Z" fill="#101820"/>
<path d="M183.92 56.1515L183.92 50.2838C183.92 50.2838 184.349 50.4618 185.644 50.4618C186.863 50.4618 187.923 50.3199 188.712 49.3966L180.365 30.5015L188.438 30.5015L192.801 42.3915L192.944 42.3915L196.929 30.5015L204.987 30.5015L197.054 48.8137C194.975 53.5542 192.371 56.4352 186.954 56.4352C185.936 56.4308 184.92 56.3359 183.92 56.1515V56.1515Z" fill="#101820"/>
<path d="M210.18 61.217L203.359 61.217L203.359 50.1523L205.065 50.1523C206.789 48.677 207.131 46.936 207.362 43.3433L208.172 30.4938L228.886 30.4938L228.886 50.1523L232.115 50.1523L232.115 61.217L225.294 61.217L225.294 56.1515L210.188 56.1515L210.18 61.217ZM212.686 50.0182L212.686 50.1523L221.281 50.1523L221.281 36.4543L214.829 36.4543L214.308 44.0809C214.113 46.8896 213.728 48.8627 212.686 50.0182Z" fill="#101820"/>
<path d="M246.192 30.5015C251.953 30.5015 255.828 34.1433 255.828 39.8511C255.828 45.502 251.716 49.1361 245.671 49.1361L241.973 49.1361L241.973 56.1411L234.363 56.1411L234.363 30.5015L246.192 30.5015ZM241.973 43.5831L244.108 43.5831C246.64 43.5831 248.148 42.3219 248.148 39.8691C248.148 37.4163 246.64 36.1706 244.163 36.1706L241.973 36.1706L241.973 43.5831Z" fill="#101820"/>
<path d="M271.572 51.0498L263.676 51.0498L262.329 56.1515L254.576 56.1515L263.03 30.5015L272.588 30.5015L281.039 56.1515L272.927 56.1515L271.572 51.0498ZM265.061 45.7342L270.195 45.7342L267.699 36.4207L267.556 36.4207L265.061 45.7342Z" fill="#101820"/>
<path d="M288.845 61.217L282.021 61.217L282.021 50.1523L283.727 50.1523C285.452 48.677 285.793 46.936 286.025 43.3433L286.834 30.4938L307.548 30.4938L307.548 50.1523L310.777 50.1523L310.777 61.217L303.956 61.217L303.956 56.1515L288.85 56.1515L288.845 61.217ZM291.338 50.0182L291.338 50.1523L299.932 50.1523L299.932 36.4543L293.486 36.4543L292.965 44.0809C292.775 46.8896 292.382 48.8627 291.34 50.0182L291.338 50.0182Z" fill="#101820"/>
<path d="M328.766 51.0498L320.867 51.0498L319.523 56.1515L311.767 56.1515L320.221 30.5015L329.771 30.5015L338.22 56.1515L330.107 56.1515L328.766 51.0498ZM322.255 45.7342L327.388 45.7342L324.893 36.4207L324.75 36.4207L322.255 45.7342Z" fill="#101820"/>
<path d="M156.722 88.19L147.622 88.19L140.069 78.1131L139.925 78.1131L139.925 88.19L132.31 88.19L132.31 62.5323L139.92 62.5323L139.92 72.4493L140.063 72.4493L148.07 62.5323L156.237 62.5323L146.533 74.5745L156.722 88.19Z" fill="#101820"/>
<path d="M175.518 88.19L175.518 68.5134L166.587 68.5134L166.587 88.19L158.967 88.19L158.967 62.5323L183.128 62.5323L183.128 88.1797L175.518 88.19Z" fill="#101820"/>
<path d="M188.063 88.19L188.063 62.5323L195.674 62.5323L195.674 88.1797L188.063 88.19Z" fill="#101820"/>
</g>
<defs>
<linearGradient id="paint0_linear" x1="0.435111" y1="62.4002" x2="61.5833" y2="62.4002" gradientUnits="userSpaceOnUse">
<stop offset="0.164" stop-color="#2648FF"/>
<stop offset="0.3734" stop-color="#2444FE"/>
<stop offset="0.5645" stop-color="#1F39FB"/>
<stop offset="0.7485" stop-color="#1727F7"/>
<stop offset="0.9271" stop-color="#0B0DF0"/>
<stop offset="1" stop-color="#0500ED"/>
</linearGradient>
<linearGradient id="paint1_linear" x1="70.6765" y1="61.3051" x2="108.351" y2="61.3051" gradientUnits="userSpaceOnUse">
<stop offset="0.164" stop-color="#2648FF"/>
<stop offset="0.3734" stop-color="#2444FE"/>
<stop offset="0.5645" stop-color="#1F39FB"/>
<stop offset="0.7485" stop-color="#1727F7"/>
<stop offset="0.9271" stop-color="#0B0DF0"/>
<stop offset="1" stop-color="#0500ED"/>
</linearGradient>
<clipPath id="clip0">
<rect x="0.42334" y="0.116184" width="337.802" height="124.386" fill="white"/>
</clipPath>
</defs>
</svg>
